# ProBuilder 4.5.2
# https://unity3d.com/unity/features/worldbuilding/probuilder
# 25/04/2022 01:11:24 a. m.

mtllib ./MFCyl.mtl
o MFCyl

g Cylinder
v -0.4045085 -0.1529353 0.2938929
v -0.5 -0.1529353 0
v 0 -0.1529353 0
v -1 0 0
v -0.809017 0 0.5877852
v -0.1545085 -0.1529353 0.4755287
v -0.3090169 0 0.9510565
v 0.1545085 -0.1529353 0.4755287
v 0.3090169 0 0.9510565
v 0.4045086 -0.1529353 0.2938929
v 0.8090171 0 0.5877852
v 0.5 -0.1529353 0
v 1 0 -8.742278E-08
v 0.4045086 -0.1529353 -0.2938919
v 0.8090171 0 -0.5877851
v 0.1545086 -0.1529353 -0.4755287
v 0.3090171 0 -0.9510565
v -0.1545086 -0.1529353 -0.4755287
v -0.3090171 0 -0.9510565
v -0.8090169 0 -0.5877853
v -0.4045085 -0.1529353 -0.2938919

vt 0.7022542 0.6224747
vt 0.75 0.4755282
vt 0.5 0.4755282
vt 1 0.4755282
vt 0.9045085 0.7694209
vt 0.5772542 0.7132926
vt 0.6545085 0.9510565
vt 0.4227458 0.7132926
vt 0.3454915 0.9510565
vt 0.2977457 0.6224747
vt 0.09549147 0.7694209
vt 0.25 0.4755282
vt 0 0.4755282
vt 0.2977457 0.3285823
vt 0.09549147 0.1816357
vt 0.4227457 0.2377639
vt 0.3454915 0
vt 0.5772543 0.2377639
vt 0.6545086 0
vt 0.9045085 0.1816356
vt 0.7022542 0.3285823

vn 0 1 0
vn 0.291182 0.9519779 -0.09461076
vn 0.1799605 0.9519778 -0.2476941
vn 0 0.9519778 -0.3061671
vn -0.1799606 0.9519778 -0.2476943
vn -0.291182 0.9519779 -0.0946106
vn -0.2911819 0.9519778 0.09461081
vn -0.1799607 0.951978 0.2476938
vn 0 0.9519778 0.3061671
vn 0.1799607 0.951978 0.2476937
vn 0.2911819 0.9519778 0.09461088

usemtl ProBuilder_Default_URP
f 3/3/1 2/2/1 1/1/1
f 5/5/2 2/2/2 4/4/2
f 1/1/2 2/2/2 5/5/2
f 3/3/1 1/1/1 6/6/1
f 5/5/3 6/6/3 1/1/3
f 5/5/3 7/7/3 6/6/3
f 8/8/4 6/6/4 7/7/4
f 9/9/4 8/8/4 7/7/4
f 8/8/1 3/3/1 6/6/1
f 8/8/1 10/10/1 3/3/1
f 9/9/5 10/10/5 8/8/5
f 11/11/5 10/10/5 9/9/5
f 10/10/1 12/12/1 3/3/1
f 10/10/6 13/13/6 12/12/6
f 10/10/6 11/11/6 13/13/6
f 12/12/1 14/14/1 3/3/1
f 13/13/7 15/15/7 14/14/7
f 12/12/7 13/13/7 14/14/7
f 14/14/1 16/16/1 3/3/1
f 15/15/8 17/17/8 16/16/8
f 14/14/8 15/15/8 16/16/8
f 19/19/9 18/18/9 17/17/9
f 18/18/9 16/16/9 17/17/9
f 18/18/1 3/3/1 16/16/1
f 18/18/10 19/19/10 20/20/10
f 21/21/10 18/18/10 20/20/10
f 21/21/1 3/3/1 18/18/1
f 21/21/11 20/20/11 4/4/11
f 2/2/11 21/21/11 4/4/11
f 2/2/1 3/3/1 21/21/1

