# ProBuilder 4.5.2
# https://unity3d.com/unity/features/worldbuilding/probuilder
# 25/04/2022 01:18:03 a. m.

mtllib ./MFlash.mtl
o MFlash

g M
v -0.5 -0.5 0
v 0 -0.5 0
v -0.5 0 0
v 0 0 0
v 0.5 -0.5 0
v 0.5 0 0
v -0.5 0.5 0
v 0 0.5 0
v 0.5 0.5 0
v -0.5 0 -0.5
v 0 0 -0.5
v -0.5 0 0.5
v 0 0 0.5
v 0.5 0 -0.5
v 0.5 0 0.5

vt 1 0
vt 0.5 0
vt 1 0.5
vt 0.5 0.5
vt 0 0
vt 0 0.5
vt 1 1
vt 0.5 1
vt 0 1

vn 0 0 1
vn 0 1 0

usemtl ProBuilder_Default_URP
f 1/1/1 2/2/1 3/3/1
f 2/2/1 4/4/1 3/3/1
f 2/2/1 5/5/1 4/4/1
f 5/5/1 6/6/1 4/4/1
f 3/3/1 4/4/1 7/7/1
f 4/4/1 8/8/1 7/7/1
f 4/4/1 6/6/1 8/8/1
f 6/6/1 9/9/1 8/8/1
f 10/5/2 3/6/2 11/2/2
f 3/6/2 4/4/2 11/2/2
f 3/6/2 12/9/2 4/4/2
f 12/9/2 13/8/2 4/4/2
f 11/2/2 4/4/2 14/1/2
f 4/4/2 6/3/2 14/1/2
f 4/4/2 13/8/2 6/3/2
f 13/8/2 15/7/2 6/3/2

