# ProBuilder 4.5.2
# https://unity3d.com/unity/features/worldbuilding/probuilder
# 25/04/2022 12:57:20 a. m.

mtllib ./Slash.mtl
o Slash

g Cylinder
v 0.4430056 0.2907695 0
v 0 0.22 0
v 0.549382 0.2907695 0.3273945
v 0.190983 0.22 0.5877852
v 0.8278793 0.2907695 0.5297337
v 0.6909831 0.22 0.9510565
v 1.172121 0.2907695 0.5297337
v 1.309017 0.22 0.9510565
v 1.450618 0.2907695 0.3273945
v 1.809017 0.22 0.5877852
v 1.556994 0.2907695 0
v 2 0.22 -8.742278E-08
v 1.450618 0.2907695 -0.3273926
v 1.809017 0.22 -0.5877851
v 1.172121 0.2907695 -0.5297318
v 1.309017 0.22 -0.9510565
v 0.8278792 0.2907695 -0.5297318
v 0.6909829 0.22 -0.9510565
v 0.5493821 0.2907695 -0.3273926
v 0.1909831 0.22 -0.5877853
v -0.24129 0.4400001 0
v -0.004224658 0.4400001 0.7296124
v 0.6164204 0.4400001 1.180537
v 1.38358 0.4400001 1.180537
v 2.004225 0.4400001 0.7296124
v 2.24129 0.4400001 0
v 2.004225 0.4400001 -0.7296124
v 1.38358 0.4400001 -1.180536
v 0.6164201 0.4400001 -1.180536
v -0.004224658 0.4400001 -0.7296124
v 0 0.66 0
v 0.190983 0.66 0.5877852
v 0.6909831 0.66 0.9510574
v 1.309017 0.66 0.9510574
v 1.809017 0.66 0.5877852
v 2 0.66 -8.742278E-08
v 1.809017 0.66 -0.5877851
v 1.309017 0.66 -0.9510565
v 0.6909829 0.66 -0.9510565
v 0.1909831 0.66 -0.5877853
v 0.511263 0.6443757 1.907349E-06
v 0.6046035 0.6443757 0.2872734
v 0.848972 0.6443757 0.464817
v 1.151028 0.6443757 0.464817
v 1.395397 0.6443757 0.2872734
v 1.488737 0.6443757 1.907349E-06
v 1.395397 0.6443757 -0.2872715
v 1.151028 0.6443757 -0.4648151
v 0.8489719 0.6443757 -0.4648151
v 0.6046035 0.6443757 -0.2872715

vt 0.4833272 -0.01112039
vt 0.03470463 -0.01112039
vt 0.5883718 0.3167039
vt 0.2232964 0.5774364
vt 0.5752926 0.2928965
vt 0.2116744 0.5556575
vt 0.8524424 0.4970775
vt 0.7092553 0.9222355
vt 0.8278793 0.4742496
vt 0.6909831 0.9014747
vt 1.172121 0.4742496
vt 1.309017 0.9014747
vt 1.137881 0.4707435
vt 1.281068 0.8959015
vt 1.415031 0.2665625
vt 1.778649 0.5293235
vt 1.386587 0.3005541
vt 1.751662 0.5612866
vt 1.491631 -0.02727013
vt 1.940254 -0.02727022
vt 1.491632 0.02727021
vt 1.940254 0.02727012
vt 1.386587 -0.3005521
vt 1.751662 -0.5612865
vt 1.415031 -0.2665607
vt 1.778649 -0.5293235
vt 1.137881 -0.4707417
vt 1.281068 -0.8959015
vt 1.172121 -0.474248
vt 1.309017 -0.9014749
vt 0.8278792 -0.474248
vt 0.6909829 -0.9014749
vt 0.8524421 -0.4970758
vt 0.709255 -0.9222356
vt 0.5752925 -0.2928948
vt 0.2116744 -0.5556578
vt 0.5883718 -0.3167019
vt 0.2232964 -0.5774364
vt 0.4833272 0.01112045
vt 0.0347046 0.01112045
vt -0.148226 0.03476591
vt -0.4747545 0.03476591
vt -0.007098077 0.6364709
vt -0.2995738 0.7816567
vt 0.05838154 0.6468269
vt -0.2196871 0.8179957
vt 0.4939828 1.085253
vt 0.3210203 1.36221
vt 0.6909831 0.8387788
vt 0.6164204 1.15668
vt 1.309017 0.8387788
vt 1.38358 1.15668
vt 1.248422 0.5355449
vt 1.421384 0.8125015
vt 1.684023 0.0971185
vt 1.962092 0.2682874
vt 1.485009 0.348304
vt 1.777485 0.4934898
vt 1.626137 -0.253401
vt 1.952666 -0.253401
vt 1.626137 0.253401
vt 1.952665 0.2534011
vt 1.485009 -0.3483038
vt 1.777485 -0.4934897
vt 1.684023 -0.09711924
vt 1.962092 -0.2682882
vt 1.248422 -0.5355455
vt 1.421385 -0.8125015
vt 1.309017 -0.8387778
vt 1.38358 -1.156679
vt 0.6909829 -0.8387778
vt 0.6164201 -1.156679
vt 0.4939818 -1.085253
vt 0.321019 -1.362209
vt 0.05838116 -0.6468269
vt -0.2196877 -0.8179955
vt -0.007097946 -0.636471
vt -0.2995737 -0.7816567
vt -0.1482259 -0.03476591
vt -0.4747545 -0.03476594
vt -0.1181493 -0.1042977
vt -0.4446778 -0.1042977
vt -0.2933301 0.6425931
vt -0.5858057 0.4974073
vt -0.2123259 0.3887664
vt -0.4903945 0.2175975
vt -0.7530335 0.9329804
vt -0.9259958 0.6560245
vt -0.6164204 0.5476848
vt -0.6909831 0.229784
vt -1.38358 0.5476848
vt -1.309017 0.229784
vt -0.9893701 0.3832701
vt -0.8164075 0.1063144
vt -1.530077 -0.1609444
vt -1.252009 -0.3321131
vt -1.184582 0.3544265
vt -0.8921059 0.2092406
vt -1.359762 -0.3924643
vt -1.033234 -0.3924644
vt -1.359762 0.3924644
vt -1.033234 0.3924643
vt -1.184581 -0.3544264
vt -0.8921056 -0.2092405
vt -1.53008 0.1609413
vt -1.252012 0.3321103
vt -0.9893724 -0.3832717
vt -0.8164102 -0.1063158
vt -1.38358 -0.5476841
vt -1.309017 -0.2297833
vt -0.6164201 -0.5476841
vt -0.6909829 -0.2297833
vt -0.7530333 -0.9329787
vt -0.9259959 -0.656023
vt -0.2123263 -0.3887654
vt -0.490395 -0.2175967
vt -0.29333 -0.6425931
vt -0.5858057 -0.4974074
vt -0.1181492 0.1042977
vt -0.4446777 0.1042977
vt 0.02016032 0.006547107
vt -0.4913414 0.006549014
vt -0.1707336 0.5943613
vt -0.5846383 0.2938347
vt -0.1784856 0.604826
vt -0.5923273 0.3042127
vt -0.6783965 0.9682209
vt -0.8366522 0.4818163
vt -0.6909831 0.9717636
vt -0.848972 0.4852722
vt -1.309017 0.9717636
vt -1.151028 0.4852722
vt -1.321247 0.9672396
vt -1.162991 0.4808349
vt -1.821158 0.6038446
vt -1.407316 0.3032313
vt -1.828333 0.5937549
vt -1.414429 0.2932284
vt -2.019227 0.005940709
vt -1.507725 0.005942704
vt -2.019227 -0.005940875
vt -1.507725 -0.00593888
vt -1.828333 -0.5937549
vt -1.414429 -0.2932265
vt -1.821158 -0.6038445
vt -1.407316 -0.3032294
vt -1.321247 -0.9672386
vt -1.162991 -0.480833
vt -1.309017 -0.9717626
vt -1.151028 -0.4852703
vt -0.6909829 -0.9717626
vt -0.8489719 -0.4852703
vt -0.6783963 -0.9682199
vt -0.8366522 -0.4818143
vt -0.1784857 -0.604826
vt -0.5923274 -0.3042107
vt -0.1707337 -0.5943614
vt -0.5846384 -0.2938327
vt 0.02016029 -0.006547096
vt -0.4913414 -0.006545188

vn 0.1577483 -0.9874794 1.24961E-07
vn -0.2812665 -0.9596297 4.185954E-08
vn 0.1276211 -0.9874793 -0.09272242
vn -0.2275493 -0.9596298 0.1653241
vn 0.04874693 -0.9874793 -0.1500278
vn -0.08691603 -0.9596298 0.2675001
vn -0.04874676 -0.9874793 -0.1500278
vn 0.08691609 -0.9596298 0.2675001
vn -0.1276212 -0.9874793 -0.09272221
vn 0.2275491 -0.9596298 0.1653241
vn -0.1577484 -0.9874794 6.714325E-08
vn 0.2812665 -0.9596297 -2.092977E-08
vn -0.1276209 -0.9874794 0.09272223
vn 0.2275493 -0.9596297 -0.1653241
vn -0.04874678 -0.9874794 0.1500273
vn 0.08691614 -0.9596295 -0.267501
vn 0.04874662 -0.9874794 0.1500272
vn -0.08691639 -0.9596295 -0.2675011
vn 0.1276208 -0.9874794 0.09272207
vn -0.2275494 -0.9596297 -0.1653244
vn -1 2.264037E-07 -1.132018E-08
vn -0.809017 1.81123E-07 0.5877852
vn -0.309017 -5.433687E-07 0.9510565
vn 0.3090169 -7.924125E-07 0.9510565
vn 0.8090171 -2.264038E-08 0.5877852
vn 1 2.037633E-07 -2.264037E-08
vn 0.8090168 3.848864E-07 -0.5877856
vn 0.3090165 4.075261E-07 -0.9510567
vn -0.3090165 2.264034E-08 -0.9510567
vn -0.8090168 2.264037E-08 -0.5877854
vn -0.3425526 0.9394986 -4.193555E-08
vn -0.277131 0.9394986 0.2013474
vn -0.105855 0.9394984 0.3257874
vn 0.1058547 0.9394985 0.3257872
vn 0.2771309 0.9394987 0.201347
vn 0.3425525 0.9394987 -1.321605E-08
vn 0.2771308 0.9394987 -0.2013475
vn 0.1058548 0.9394984 -0.3257875
vn -0.1058546 0.9394985 -0.3257873
vn -0.2771308 0.9394987 -0.2013473
vn 0.0305459 0.9995334 -3.120084E-08
vn 0.02471216 0.9995334 -0.01795446
vn 0.009439181 0.9995334 -0.02905087
vn -0.009439214 0.9995334 -0.02905089
vn -0.02471218 0.9995334 -0.01795449
vn -0.03054592 0.9995334 -3.166653E-08
vn -0.02471214 0.9995334 0.0179544
vn -0.009439162 0.9995334 0.02905082
vn 0.009439182 0.9995334 0.02905082
vn 0.02471212 0.9995334 0.01795442

usemtl ProBuilder_Default_URP
f 3/3/3 4/4/4 2/2/2 1/1/1
f 5/7/5 6/8/6 4/6/4 3/5/3
f 7/11/7 8/12/8 6/10/6 5/9/5
f 9/15/9 10/16/10 8/14/8 7/13/7
f 11/19/11 12/20/12 10/18/10 9/17/9
f 13/23/13 14/24/14 12/22/12 11/21/11
f 15/27/15 16/28/16 14/26/14 13/25/13
f 17/31/17 18/32/18 16/30/16 15/29/15
f 19/35/19 20/36/20 18/34/18 17/33/17
f 1/39/1 2/40/2 20/38/20 19/37/19
f 4/43/4 22/44/22 21/42/21 2/41/2
f 6/47/6 23/48/23 22/46/22 4/45/4
f 8/51/8 24/52/24 23/50/23 6/49/6
f 10/55/10 25/56/25 24/54/24 8/53/8
f 12/59/12 26/60/26 25/58/25 10/57/10
f 14/63/14 27/64/27 26/62/26 12/61/12
f 16/67/16 28/68/28 27/66/27 14/65/14
f 18/71/18 29/72/29 28/70/28 16/69/16
f 20/75/20 30/76/30 29/74/29 18/73/18
f 2/79/2 21/80/21 30/78/30 20/77/20
f 22/83/22 32/84/32 31/82/31 21/81/21
f 23/87/23 33/88/33 32/86/32 22/85/22
f 24/91/24 34/92/34 33/90/33 23/89/23
f 25/95/25 35/96/35 34/94/34 24/93/24
f 26/99/26 36/100/36 35/98/35 25/97/25
f 27/103/27 37/104/37 36/102/36 26/101/26
f 28/107/28 38/108/38 37/106/37 27/105/27
f 29/111/29 39/112/39 38/110/38 28/109/28
f 30/115/30 40/116/40 39/114/39 29/113/29
f 21/119/21 31/120/31 40/118/40 30/117/30
f 32/123/32 42/124/42 41/122/41 31/121/31
f 33/127/33 43/128/43 42/126/42 32/125/32
f 34/131/34 44/132/44 43/130/43 33/129/33
f 35/135/35 45/136/45 44/134/44 34/133/34
f 36/139/36 46/140/46 45/138/45 35/137/35
f 37/143/37 47/144/47 46/142/46 36/141/36
f 38/147/38 48/148/48 47/146/47 37/145/37
f 39/151/39 49/152/49 48/150/48 38/149/38
f 40/155/40 50/156/50 49/154/49 39/153/39
f 31/159/31 41/160/41 50/158/50 40/157/40

